<svg width="120" height="119" viewBox="0 0 120 119" fill="none" xmlns="http://www.w3.org/2000/svg">
<path d="M118.133 69.6655C117.623 72.5186 111.526 74.3608 102.588 74.3608H102.361C99.02 71.64 94.9615 68.8719 90.3933 66.2738C89.0813 65.5275 87.7694 64.8189 86.4574 64.1576C87.9298 63.9686 89.4022 63.7514 90.8841 63.4963C95.9336 62.6177 100.71 61.3895 104.891 59.9346C113.234 62.8916 118.671 66.6328 118.123 69.656L118.133 69.6655ZM111.063 88.8154C110.242 90.2136 108.072 90.5065 106.391 90.5065C103.305 90.5065 99.1899 89.5712 94.6123 87.9085C92.8378 84.9325 90.6292 81.7771 88.062 78.5649C87.977 78.461 87.8826 78.3477 87.7977 78.2437C87.5806 77.9698 87.3635 77.7052 87.137 77.4313C86.8161 77.0439 86.4952 76.6566 86.1648 76.2787C85.1927 75.1355 84.2016 74.0302 83.2106 72.9721C84.6358 73.2838 86.0893 73.5767 87.5901 73.8318C92.5641 74.6915 97.5193 75.1639 101.984 75.2017C108.798 80.7945 112.611 86.1512 111.054 88.806L111.063 88.8154ZM79.8788 114.607C79.6145 114.701 79.322 114.749 79.0199 114.749C76.0374 114.749 71.8373 110.289 67.8637 103.459C68.581 99.2548 68.9774 94.4178 68.9774 89.2311C68.9774 87.7479 68.9397 86.2741 68.8736 84.8286C69.7608 85.9717 70.6858 87.1149 71.6674 88.2675C74.0836 91.1017 76.5754 93.7092 79.0388 95.986C79.9732 96.8458 80.8887 97.6677 81.8043 98.4329C83.3711 107.04 82.8047 113.558 79.8788 114.607ZM59.5201 118.15C56.396 118.15 53.6022 112.217 52.092 103.591C54.244 99.8595 56.311 95.4475 58.0854 90.6293C58.6046 89.2217 59.0765 87.8329 59.5201 86.463C59.9543 87.8329 60.4356 89.2217 60.9547 90.6293C62.7292 95.4381 64.7962 99.85 66.9481 103.591C65.438 112.217 62.6442 118.15 59.5201 118.15ZM40.0202 114.758C39.7182 114.758 39.4256 114.711 39.1613 114.616C36.226 113.568 35.6597 107.049 37.2359 98.4424C40.5677 95.6459 44.041 92.1787 47.3634 88.2769C48.345 87.1338 49.2699 85.9812 50.1571 84.838C50.0911 86.2741 50.0533 87.7384 50.0533 89.2406C50.0533 94.4272 50.4592 99.2643 51.1671 103.468C47.2029 110.299 42.9934 114.758 40.0202 114.758ZM23.2859 105.056C22.4364 105.056 21.7568 104.848 21.2566 104.432C19.586 103.053 19.888 99.3588 22.0872 94.2949C22.8706 92.4905 23.8616 90.5726 25.032 88.5981C29.1566 87.0771 33.6398 84.9892 38.1042 82.4478C39.4162 81.7015 40.6904 80.9363 41.9268 80.1616C41.3605 81.4937 40.8225 82.8541 40.3034 84.2618C38.5006 89.1555 37.1981 93.8509 36.4053 98.055C31.1764 102.42 26.4005 105.056 23.2953 105.056H23.2859ZM12.6393 90.516C10.9592 90.516 8.78839 90.2231 7.96724 88.8249C6.4099 86.1607 10.223 80.8134 17.0376 75.2205C21.4925 75.1828 26.4477 74.7104 31.4312 73.8507C32.932 73.5861 34.3949 73.2933 35.8201 72.991C34.8291 74.0491 33.838 75.1544 32.8659 76.2976C29.5624 80.1805 26.6931 84.1578 24.4373 87.9274C19.8503 89.5996 15.7351 90.5349 12.6393 90.5349V90.516ZM16.443 74.3703C7.5142 74.3703 1.41696 72.528 0.897841 69.6749C0.35985 66.6517 5.78696 62.9105 14.1211 59.9535C18.1985 61.38 22.9555 62.6082 28.1372 63.5057C29.6191 63.7608 31.1009 63.9875 32.5639 64.1765C31.2519 64.8378 29.9494 65.5464 28.628 66.2927C24.0598 68.8908 20.0107 71.6589 16.6695 74.3797H16.4335L16.443 74.3703ZM7.96724 30.1468C8.78839 28.7486 10.9592 28.4557 12.6393 28.4557C15.7257 28.4557 19.8408 29.391 24.4185 31.0537C26.6176 34.7288 29.468 38.6967 32.8564 42.6836C33.8286 43.8267 34.8196 44.932 35.8107 45.9902C34.3855 45.6784 32.9225 45.3855 31.4218 45.1304C28.8262 44.677 26.2307 44.3369 23.7106 44.1007C21.4076 43.8928 19.1613 43.7795 17.0282 43.7606C10.2136 38.1677 6.40046 32.8204 7.95781 30.1562L7.96724 30.1468ZM21.2566 14.5396C21.7568 14.1239 22.4364 13.9161 23.2859 13.9161C26.3911 13.9161 31.1764 16.5614 36.4053 20.9166C37.1981 25.1208 38.4912 29.8161 40.3034 34.7005C40.8225 36.1081 41.3699 37.478 41.9268 38.8101C40.6998 38.0354 39.4256 37.2702 38.1042 36.5238C33.6493 33.9825 29.1755 31.904 25.0508 30.383C20.5865 22.825 18.8592 16.5141 21.2472 14.5396H21.2566ZM39.1613 4.35527C39.4256 4.2608 39.7182 4.21356 40.0202 4.21356C42.9934 4.21356 47.2029 8.67275 51.1671 15.4938C50.4497 19.6979 50.0533 24.535 50.0533 29.7311C50.0533 30.2318 50.0533 30.7325 50.0628 31.2332C50.0628 31.5828 50.0722 31.9324 50.0911 32.2819C50.0911 32.4142 50.0911 32.5559 50.1005 32.6882C50.1099 33.1794 50.1383 33.6612 50.1571 34.1336C49.2699 32.9905 48.345 31.8473 47.3634 30.6947C44.041 26.7929 40.5677 23.3257 37.2359 20.5293C35.6597 11.9227 36.226 5.41339 39.1613 4.35527ZM79.0199 4.21356C79.322 4.21356 79.6051 4.2608 79.8788 4.35527C81.9175 5.08273 82.918 8.66331 82.616 14.1617C82.5122 16.1268 82.2384 18.2619 81.8326 20.5104C78.5008 23.3163 75.0086 26.7835 71.6768 30.6947C70.7047 31.8379 69.7797 32.981 68.883 34.1336C68.9491 32.6976 68.9868 31.2333 68.9868 29.7311C68.9868 29.2115 68.9869 28.7013 68.9774 28.1817C68.9774 28.125 68.9774 28.0684 68.9774 28.0117C68.9774 27.5865 68.9585 27.1614 68.9491 26.7363C68.9397 26.3678 68.9208 26.0183 68.9113 25.6593C68.9113 25.5459 68.9113 25.4325 68.9019 25.3286C68.7415 21.7953 68.3922 18.4886 67.8826 15.4938C71.8561 8.66331 76.0563 4.21356 79.0388 4.21356H79.0199ZM95.7543 13.9161C96.5943 13.9161 97.2833 14.1334 97.7836 14.5396C100.172 16.5141 98.4537 22.825 93.9893 30.383C89.8647 31.904 85.4003 33.9825 80.9454 36.5238C79.624 37.2702 78.3498 38.0354 77.1228 38.8101C77.6891 37.478 78.2271 36.1081 78.7462 34.7005C80.5018 29.939 81.8232 25.2247 82.6254 20.9261C87.8543 16.5519 92.6491 13.9066 95.7543 13.9066V13.9161ZM106.401 28.4557C108.081 28.4557 110.252 28.7486 111.073 30.1468C112.158 32.0079 110.592 35.3712 106.778 39.3958C105.419 40.8319 103.824 42.2962 102.04 43.7511C97.5759 43.7889 92.6019 44.2613 87.6184 45.121C86.1177 45.3761 84.6547 45.6689 83.2389 45.9807C84.23 44.9226 85.2116 43.8172 86.1932 42.6741C89.5816 38.6967 92.432 34.7288 94.6311 31.0443C99.2088 29.3816 103.324 28.4463 106.41 28.4463L106.401 28.4557ZM75.4805 59.4811C78.5103 58.4702 81.7665 57.1192 85.0983 55.4848C86.9577 55.7021 88.8548 55.9667 90.7519 56.2973C95.3957 57.1004 99.7657 58.2151 103.598 59.4906C99.7185 60.7849 95.3485 61.8713 90.7519 62.6649C88.8548 62.9956 86.9671 63.2601 85.0983 63.4774C81.7571 61.843 78.5008 60.492 75.4711 59.4811H75.4805ZM75.9147 64.0348C75.0369 64.0348 74.1874 64.0159 73.3663 63.9781C71.9128 62.8822 70.497 61.9374 69.1662 61.1533C70.7047 60.8699 72.3564 60.4542 74.1119 59.9157C77.0284 60.8321 80.2092 62.0886 83.4843 63.638C80.851 63.8931 78.3026 64.0253 75.9147 64.0253V64.0348ZM74.5178 64.8661C74.9803 64.8756 75.4333 64.885 75.9147 64.885C78.7462 64.885 81.8043 64.7055 84.9473 64.356C86.6084 65.1779 88.2979 66.066 89.9685 67.0296C94.0554 69.3537 97.7741 71.8667 100.927 74.3608C96.802 74.2664 92.2904 73.8034 87.7599 73.0193C85.8439 72.6886 83.9751 72.3013 82.1629 71.8762C79.5862 69.212 76.9907 66.8501 74.5084 64.885L74.5178 64.8661ZM93.2814 87.4172C89.4966 85.9528 85.4286 84.0161 81.3701 81.7109C79.6806 80.7568 78.0572 79.7553 76.5093 78.7444C75.0086 75.3623 73.3946 72.2824 71.7429 69.6088C74.6877 70.733 78.0572 71.7628 81.7382 72.632C83.0124 73.964 84.2772 75.3623 85.523 76.8266C88.5528 80.3883 91.1767 84.0067 93.2814 87.4077V87.4172ZM72.3375 87.729C71.0916 86.2646 69.9118 84.7814 68.7981 83.3076C68.5716 79.6797 68.128 76.2314 67.505 73.1327C69.8741 75.1828 72.6773 77.2801 75.8109 79.3207C76.5565 81.0024 77.2549 82.7502 77.9251 84.5452C79.539 88.9193 80.7566 93.2085 81.5494 97.1197C81.2946 96.9024 81.0492 96.6757 80.7849 96.449C77.9911 93.9454 75.1124 90.9978 72.3281 87.729H72.3375ZM57.4531 73.709C58.2931 72.1029 58.9915 70.5819 59.5295 69.1553C60.0675 70.5819 60.766 72.1029 61.606 73.709C61.2001 76.6849 60.5111 79.9821 59.5295 83.4493C58.5574 79.9821 57.8589 76.6755 57.4531 73.709ZM52.6489 72.1407C53.5361 71.3377 54.3572 70.5252 55.1123 69.7316C55.4899 69.3348 55.8391 68.9474 56.1694 68.5696C56.1789 70.0906 56.311 71.7628 56.5375 73.5484C55.1218 76.2031 53.3285 79.0751 51.2048 82.0038C51.488 78.4138 51.9882 75.0694 52.6395 72.1407H52.6489ZM51.5352 73.1232C50.9217 76.1747 50.478 79.6042 50.2515 83.317C49.1472 84.7814 47.9674 86.2646 46.7121 87.729C43.6824 91.2907 40.5299 94.4839 37.5002 97.1197C38.293 93.2085 39.5011 88.9193 41.1151 84.5452C41.7852 82.7407 42.4837 80.9929 43.2293 79.3207C46.3062 77.3084 49.1189 75.2111 51.5257 73.1327L51.5352 73.1232ZM48.6659 69.0703C50.3553 68.3806 51.8844 67.6437 53.2246 66.8973C52.7055 68.3334 52.243 69.9583 51.8372 71.725C49.5531 73.7751 46.8631 75.8535 43.8994 77.8564C45.4096 74.5876 47.033 71.6116 48.6659 69.0703ZM47.3162 69.5993C45.6644 72.2729 44.041 75.3623 42.5497 78.7444C40.9924 79.7553 39.369 80.7473 37.6889 81.7015C33.621 84.0161 29.5436 85.9528 25.7493 87.4172C27.8918 83.9594 30.5346 80.3505 33.536 76.8266C34.7913 75.3623 36.0561 73.964 37.3208 72.632C41.0018 71.7628 44.3714 70.733 47.3162 69.5993ZM45.957 64.8189C46.1741 64.8095 46.3818 64.8 46.5988 64.7906C47.2878 64.7528 47.958 64.6961 48.5998 64.6394C49.4681 64.5544 50.2987 64.4505 51.0821 64.3182C50.1005 65.4897 49.1095 66.8407 48.1279 68.3523C45.2963 69.4954 42.0212 70.563 38.4629 71.4794C41.0113 68.9097 43.5597 66.6612 45.9665 64.8284L45.957 64.8189ZM43.1444 64.885C43.6163 64.885 44.0788 64.885 44.5413 64.8661C42.0589 66.8312 39.4728 69.1931 36.8961 71.8573C35.0839 72.2824 33.2151 72.6697 31.2991 73.0004C26.7686 73.7845 22.2476 74.2475 18.123 74.3514C21.2849 71.8573 24.9942 69.3442 29.0811 67.0202C30.7611 66.066 32.4412 65.1685 34.1023 64.3465C37.2453 64.6961 40.3034 64.8756 43.1349 64.8756L43.1444 64.885ZM15.4897 59.4906C19.3123 58.2151 23.6728 57.1098 28.3071 56.3068C30.2042 55.9761 32.0919 55.7021 33.9513 55.4943C37.2925 57.1287 40.5488 58.4702 43.5785 59.4906C40.5488 60.5014 37.2925 61.8524 33.9513 63.4868C32.0919 63.2695 30.2042 63.005 28.3071 62.6743C23.6728 61.8713 19.3123 60.766 15.4897 59.4906ZM16.4619 44.6014C16.5374 44.6014 16.6223 44.6014 16.6978 44.6014C20.039 47.3222 24.0976 50.0809 28.6563 52.6789C29.9683 53.4253 31.2802 54.1244 32.5922 54.7952C31.1292 54.9841 29.6474 55.2014 28.1655 55.4565C22.9838 56.354 18.2268 57.5916 14.1494 59.0087C5.78696 56.0517 0.350411 52.3199 0.897841 49.2873C1.02998 48.541 1.54909 47.8702 2.38912 47.275C4.77705 45.5934 9.83606 44.5825 16.443 44.5825L16.4619 44.6014ZM31.2991 45.9713C33.2151 46.3019 35.0839 46.6893 36.8961 47.1144C39.4728 49.788 42.0589 52.1404 44.5413 54.1055C44.0882 54.0961 43.6257 54.0866 43.1444 54.0866C40.3034 54.0866 37.2548 54.2661 34.1118 54.6157C32.4506 53.7937 30.7706 52.9057 29.0905 51.942C25.0037 49.618 21.2849 47.105 18.1325 44.6108C19.9163 44.6486 21.7663 44.762 23.6634 44.9415C26.1551 45.1682 28.7318 45.5178 31.2991 45.9618V45.9713ZM47.3162 49.3723C44.3714 48.2387 41.0018 47.2089 37.3208 46.3397C36.0466 45.0171 34.7819 43.6094 33.536 42.1451C30.5063 38.5834 27.8824 34.965 25.7776 31.5639C29.5624 33.0283 33.6304 34.965 37.6889 37.2702C39.3784 38.2338 41.0018 39.2258 42.5497 40.2272C44.0505 43.6094 45.6644 46.6987 47.3162 49.3723ZM51.8466 47.2845C52.2525 49.0417 52.715 50.6477 53.2246 52.0838C51.8749 51.3374 50.3553 50.61 48.6659 49.9108C47.033 47.3789 45.419 44.403 43.9089 41.1342C46.9197 43.1748 49.6003 45.2627 51.8466 47.2845ZM51.5352 45.839C49.1661 43.7984 46.3723 41.701 43.2293 39.6604C42.4931 37.9787 41.7852 36.2309 41.1151 34.4359C39.5011 30.0618 38.2836 25.7726 37.5002 21.8614C40.5299 24.4972 43.6824 27.6905 46.7121 31.2521C47.958 32.7165 49.1378 34.1997 50.2515 35.6641C50.478 39.3675 50.9217 42.7969 51.5352 45.839ZM51.8844 16.7409C53.8193 20.2459 55.6881 24.2894 57.2926 28.6352C57.9627 30.4397 58.5479 32.2252 59.0765 33.973C58.0099 37.5252 57.236 40.898 56.7546 43.9684C55.235 41.2475 53.3379 38.3377 51.101 35.3618C50.9877 33.5384 50.9311 31.6584 50.9311 29.7406C50.9311 25.1019 51.2803 20.671 51.8844 16.7409ZM67.5333 45.839C68.1468 42.7969 68.5904 39.3581 68.817 35.6547C69.9213 34.1808 71.1105 32.707 72.3469 31.2521C75.3861 27.681 78.548 24.4878 81.5872 21.8425C80.7849 25.8104 79.5485 30.0996 77.9439 34.4359C77.2833 36.2309 76.5754 37.9787 75.8297 39.6604C72.6962 41.701 69.9024 43.7984 67.5333 45.839ZM70.4026 49.9108C68.7131 50.61 67.1841 51.3374 65.8344 52.0838C65.9194 51.8381 66.0137 51.5925 66.0892 51.3374C66.5045 50.0998 66.8821 48.7394 67.2124 47.2845C69.4588 45.2627 72.1487 43.1748 75.1502 41.1342C73.64 44.3935 72.0166 47.3695 70.3932 49.9014L70.4026 49.9108ZM71.7429 49.3818C73.3946 46.7082 75.0086 43.6283 76.5093 40.2461C78.0572 39.2352 79.6806 38.2433 81.3701 37.2796C85.4286 34.9744 89.4966 33.0377 93.2814 31.5734C91.1767 34.9744 88.5528 38.5928 85.523 42.1545C84.2772 43.6188 83.003 45.0265 81.7382 46.3492C78.0572 47.2183 74.6877 48.2481 71.7429 49.3818ZM73.1115 54.1622C71.2332 54.2472 69.5154 54.4173 67.9864 54.6629C68.968 53.4914 69.959 52.1404 70.9406 50.6289C73.7722 49.4763 77.0473 48.4087 80.6056 47.5017C78.0572 50.0715 75.5088 52.3199 73.102 54.1527L73.1115 54.1622ZM75.9147 54.0961C75.4428 54.0961 74.9803 54.0961 74.5178 54.115C77.0001 52.1499 79.5862 49.7975 82.1724 47.1238C83.9751 46.6987 85.8439 46.3114 87.7694 45.9807C92.3093 45.1871 96.8303 44.7336 100.974 44.6297C97.7647 47.1522 94.0271 49.6558 89.978 51.9609C88.2979 52.9151 86.6179 53.8126 84.9567 54.6346C81.8137 54.285 78.7651 54.1055 75.9241 54.1055L75.9147 54.0961ZM69.1662 57.8184C70.497 57.0437 71.9128 56.0895 73.3663 54.9936C74.1874 54.9652 75.0369 54.9463 75.9052 54.9463C78.2932 54.9463 80.851 55.0786 83.4843 55.3337C80.1997 56.8831 77.0284 58.1396 74.1119 59.0654C72.3658 58.5269 70.7047 58.1112 69.1662 57.8278V57.8184ZM65.7683 59.5C66.4762 59.226 67.2124 58.8859 67.9769 58.4797C69.4116 58.6875 70.9689 59.0371 72.6301 59.5C70.9689 59.9629 69.4116 60.303 67.9769 60.5203C67.2124 60.1141 66.4668 59.774 65.7683 59.5ZM67.9864 64.3276C69.5154 64.5827 71.2332 64.7528 73.1115 64.8284C75.5183 66.6612 78.0572 68.9097 80.615 71.4794C77.0567 70.5724 73.7816 69.5048 70.9501 68.3523C69.9685 66.8407 68.9774 65.4897 67.9958 64.3182L67.9864 64.3276ZM65.3436 65.6408C65.0133 64.8378 64.664 64.1198 64.3148 63.4585C65.0321 63.6947 65.8155 63.9025 66.6744 64.082C67.6088 65.1307 68.5621 66.3588 69.5154 67.7476C67.9581 67.058 66.5612 66.3494 65.353 65.6314L65.3436 65.6408ZM66.3252 68.39C66.1648 67.8704 65.9949 67.3792 65.8344 66.9068C67.1747 67.6531 68.7131 68.39 70.4026 69.0892C72.0355 71.6305 73.6495 74.597 75.1596 77.8658C72.1487 75.8252 69.4588 73.7373 67.2124 71.7155C66.9481 70.5441 66.6461 69.4482 66.3347 68.3995L66.3252 68.39ZM62.8613 67.228C62.8235 66.3588 62.748 65.5558 62.6348 64.8189C63.2294 65.2818 63.8995 65.7542 64.6452 66.2171C64.9472 66.9635 65.2303 67.7665 65.4946 68.6357C65.6928 69.2781 65.8816 69.9489 66.0609 70.6385C64.8245 69.4671 63.7485 68.3145 62.8613 67.228ZM62.5121 73.5672C62.7386 71.7817 62.8613 70.1095 62.8802 68.5884C63.8901 69.7505 65.0793 70.9597 66.429 72.1879C67.0992 75.1639 67.5711 78.4988 67.8542 82.0416C65.7306 79.1034 63.9278 76.2314 62.5215 73.5672H62.5121ZM57.4247 63.9403C57.6985 63.6758 57.9439 63.4207 58.1704 63.1656C58.1704 63.4963 58.1893 63.8458 58.227 64.2143C57.9344 64.7811 57.5569 65.3763 57.1227 65.9998C57.1888 65.2535 57.2832 64.5638 57.4247 63.9498V63.9403ZM55.9995 62.9767C56.3393 62.8255 56.6697 62.6649 56.9623 62.5043C56.849 62.8161 56.7452 63.1562 56.6602 63.5152C56.1789 63.9403 55.6314 64.3749 54.9991 64.8095C55.32 64.1292 55.6503 63.5246 55.9995 62.9861V62.9767ZM54.7348 63.4585C54.3667 64.1104 54.0269 64.8473 53.6966 65.6408C52.4884 66.3588 51.0821 67.0674 49.5248 67.7571C50.478 66.3683 51.4313 65.1401 52.3657 64.0915C53.2246 63.912 54.0175 63.7041 54.7348 63.4585ZM51.0632 58.4797C51.8277 58.8859 52.5734 59.226 53.2718 59.5C52.5639 59.774 51.8277 60.1141 51.0632 60.5203C49.6286 60.3125 48.0712 59.9724 46.4101 59.5C48.0712 59.0371 49.6286 58.6875 51.0632 58.4797ZM49.874 57.8184C48.3355 58.1018 46.6838 58.5175 44.9377 59.056C42.0212 58.1396 38.8404 56.8736 35.5558 55.3242C38.1892 55.0692 40.7376 54.9369 43.1349 54.9369C44.0127 54.9369 44.8622 54.9558 45.6739 54.9841C47.1274 56.08 48.5432 57.0248 49.874 57.8089V57.8184ZM51.9693 55.7116C52.5451 56.3446 53.1208 56.902 53.6777 57.3932C52.8943 57.4121 52.0637 57.4877 51.1765 57.6105C49.9212 56.9303 48.5809 56.0895 47.184 55.088C48.949 55.2109 50.5536 55.4187 51.9693 55.7116ZM48.0996 50.6383C49.0812 52.1499 50.0816 53.5009 51.0538 54.6724C49.5248 54.4173 47.807 54.2567 45.9381 54.1716C43.5313 52.3388 40.983 50.0903 38.4346 47.5206C41.9929 48.4276 45.268 49.4952 48.0996 50.6477V50.6383ZM56.16 50.4116C55.1595 49.259 53.9797 48.0591 52.63 46.831C51.9788 43.9023 51.488 40.5673 51.1954 36.9773C53.3096 39.906 55.1123 42.778 56.5281 45.4328C56.2921 47.2278 56.1694 48.8905 56.16 50.4116ZM59.067 51.1201C58.7933 51.9515 58.5857 52.7262 58.4347 53.4536C58.0382 52.8112 57.5758 52.1593 57.0378 51.4791C57.0095 50.0903 57.085 48.541 57.2643 46.8688C58.0099 48.3804 58.6234 49.8164 59.0765 51.1296L59.067 51.1201ZM61.5965 45.291C61.0397 46.3492 60.5489 47.3884 60.1147 48.3898C59.8976 48.8905 59.7089 49.3723 59.5295 49.8353C58.9915 48.4087 58.2931 46.8877 57.4531 45.2721C57.8589 42.2962 58.5479 38.999 59.5295 35.5318C60.5111 38.999 61.2001 42.3057 61.606 45.2816L61.5965 45.291ZM62.3044 43.9967C61.8231 40.9263 61.0491 37.5441 59.9731 33.9825C60.5017 32.2347 61.0963 30.4397 61.757 28.6447C63.3615 24.2988 65.2209 20.2553 67.1652 16.7503C67.7787 20.6805 68.1185 25.1113 68.1185 29.75C68.1185 31.6678 68.0619 33.5479 67.9392 35.3712C65.7495 38.2999 63.8335 41.2192 62.2855 43.9873L62.3044 43.9967ZM66.4102 46.8404C65.0699 48.0591 63.8806 49.259 62.8896 50.421C62.8707 48.9 62.748 47.2183 62.5121 45.4233C63.9467 42.7213 65.7495 39.8682 67.8448 36.9773C67.5616 40.5768 67.0614 43.9212 66.4102 46.8499V46.8404ZM64.6452 52.8018C63.8995 53.2552 63.2294 53.7276 62.6348 54.1905C62.748 53.4442 62.8235 52.6412 62.8613 51.7814C63.7391 50.695 64.8151 49.5613 66.0326 48.3898C65.9854 48.5788 65.9382 48.7677 65.891 48.9472C65.5135 50.3549 65.0982 51.6492 64.6452 52.7923V52.8018ZM64.3054 55.551C64.6735 54.8991 65.0133 54.1716 65.3436 53.3686C66.5517 52.6506 67.9486 51.9326 69.506 51.2524C68.5527 52.6412 67.5994 53.8788 66.6744 54.918C65.8155 55.0975 65.0227 55.3053 64.3054 55.551ZM64.0505 57.4216C63.673 57.4499 63.3049 57.4877 62.9746 57.5444C63.1822 57.2988 63.3899 57.0248 63.5881 56.7413C64.1827 56.4957 64.8622 56.2784 65.5985 56.0706C65.0699 56.5902 64.5508 57.0437 64.0505 57.4216ZM65.3625 57.4121C65.9288 56.9209 66.4951 56.354 67.0708 55.7305C68.4866 55.4376 70.0912 55.2298 71.8561 55.1069C70.4593 56.0989 69.119 56.9492 67.8637 57.6294C66.9765 57.5066 66.1364 57.431 65.3625 57.4121ZM64.3148 59.0276C64.0128 58.9426 63.7202 58.8765 63.437 58.8292C63.7296 58.6686 64.0128 58.4797 64.3054 58.2624C64.5225 58.2529 64.7395 58.2529 64.9472 58.2529C65.4286 58.2529 65.9477 58.2813 66.4762 58.3285C65.7872 58.6403 65.1265 58.8954 64.5036 59.0843C64.447 59.0654 64.3809 59.0465 64.3243 59.0276H64.3148ZM65.3625 61.6257C66.1459 61.6068 66.9765 61.5312 67.8637 61.4084C69.119 62.0792 70.4593 62.9294 71.8561 63.9309C70.0912 63.808 68.4866 63.5907 67.0708 63.3073C66.4951 62.6743 65.9194 62.1075 65.3625 61.6257ZM62.984 61.4934C63.3238 61.5501 63.673 61.5784 64.0505 61.6068C64.5508 61.9847 65.0699 62.4382 65.5985 62.9578C64.8622 62.7594 64.1921 62.5421 63.5975 62.2965C63.3993 62.0036 63.1916 61.739 62.984 61.4934ZM62.0779 62.5232C62.3705 62.6838 62.6914 62.8444 63.0312 62.9956C63.3804 63.5246 63.7108 64.1387 64.0411 64.8189C63.4182 64.3938 62.8613 63.9592 62.3894 63.5341C62.3044 63.1751 62.2006 62.8444 62.0873 62.5232H62.0779ZM60.8226 64.2521C60.8603 63.8836 60.8792 63.5246 60.8887 63.1845C61.1152 63.4396 61.3511 63.7041 61.6343 63.9592C61.7759 64.5827 61.8703 65.2724 61.9363 66.0187C61.4927 65.4047 61.1246 64.8095 60.832 64.2426L60.8226 64.2521ZM55.0085 61.6068C55.386 61.5784 55.7541 61.5407 56.0845 61.484C55.8768 61.7296 55.6786 62.0036 55.4804 62.287C54.8858 62.5326 54.2062 62.7594 53.47 62.9578C53.9986 62.4382 54.5177 61.9847 55.0179 61.6068H55.0085ZM53.6966 61.6257C53.1302 62.1075 52.5639 62.6743 51.9882 63.3073C50.5724 63.5907 48.9679 63.7986 47.2029 63.9309C48.5998 62.9294 49.9401 62.0792 51.1954 61.4084C52.0826 61.5312 52.9226 61.6068 53.6966 61.6257ZM55.622 60.2086C55.3388 60.3786 55.0463 60.5581 54.7537 60.7754C54.5366 60.7849 54.3195 60.7943 54.1119 60.7943C53.6305 60.7943 53.1114 60.766 52.5828 60.7187C53.2718 60.407 53.942 60.1519 54.5555 59.9535C54.9236 60.0669 55.2728 60.1424 55.622 60.2086ZM54.7537 58.2624C55.0463 58.4797 55.3388 58.6686 55.622 58.8292C55.2822 58.8954 54.9236 58.9804 54.5555 59.0843C53.9325 58.8954 53.2718 58.6403 52.5828 58.3285C53.1114 58.2813 53.6305 58.2529 54.1119 58.2529C54.3195 58.2529 54.5366 58.2529 54.7537 58.2624ZM55.471 56.7413C55.6692 57.0342 55.8768 57.2988 56.0845 57.5444C55.7447 57.4877 55.3955 57.4499 55.0179 57.4216C54.5177 57.0437 53.9986 56.5902 53.47 56.0706C54.2062 56.269 54.8764 56.4863 55.471 56.7413ZM53.7154 53.3781C53.7154 53.3781 53.7249 53.4158 53.7343 53.4347C53.7626 53.4914 53.7815 53.5481 53.8098 53.6048C53.8759 53.756 53.9325 53.8882 53.9986 54.0299C54.244 54.5779 54.4988 55.088 54.7537 55.551C54.0363 55.3148 53.2435 55.1069 52.3846 54.918C51.4596 53.8693 50.5064 52.6412 49.5531 51.2524C51.1104 51.942 52.5167 52.6506 53.7249 53.3686L53.7154 53.3781ZM58.1704 55.8438C57.9533 55.5888 57.7079 55.3242 57.4342 55.0692C57.2926 54.4456 57.1888 53.756 57.1227 53.0096C57.5663 53.6237 57.925 54.2094 58.227 54.7763C58.1893 55.1542 58.1704 55.5037 58.1609 55.8438H58.1704ZM59.9543 54.6346C59.7844 54.9652 59.6428 55.2959 59.5295 55.6171C59.4163 55.3053 59.2747 54.9841 59.1142 54.6535C59.1992 54.0205 59.3408 53.3403 59.539 52.6034C59.7372 53.3308 59.8787 54.011 59.9637 54.644L59.9543 54.6346ZM61.6249 55.0692C61.3511 55.3337 61.1057 55.5888 60.8792 55.8533C60.8792 55.5132 60.8603 55.1636 60.8132 54.7857C61.1152 54.2189 61.4833 53.6237 61.9174 53.0096C61.8514 53.756 61.7476 54.4456 61.6154 55.0692H61.6249ZM63.0501 56.0328C62.7008 56.1839 62.3799 56.3446 62.0779 56.5146C62.1912 56.2028 62.295 55.8627 62.3799 55.5037C62.8613 55.0786 63.4087 54.644 64.0411 54.2189C63.7202 54.8991 63.3899 55.5037 63.0501 56.0422V56.0328ZM56.6791 55.5037C56.7641 55.8627 56.8679 56.1934 56.9811 56.5146C56.6885 56.3446 56.3676 56.1934 56.0279 56.0422C55.6786 55.5132 55.3483 54.8991 55.0179 54.2189C55.6409 54.644 56.1977 55.0786 56.6697 55.5037H56.6791ZM64.3148 60.766C64.0222 60.5487 63.7296 60.3692 63.4465 60.1991C63.7863 60.133 64.1449 60.0574 64.513 59.944C65.136 60.133 65.7967 60.3881 66.4857 60.7093C65.9571 60.7565 65.438 60.7849 64.9566 60.7849C64.749 60.7849 64.5413 60.7849 64.3148 60.766ZM62.0213 51.4791C61.4833 52.1593 61.0114 52.8301 60.6149 53.4631C60.4639 52.7262 60.2563 51.942 59.9826 51.1201C60.2468 50.3643 60.5489 49.5707 60.917 48.7299C61.1813 48.1158 61.4833 47.4829 61.7948 46.8404C61.9741 48.5221 62.0496 50.0903 62.0213 51.4886V51.4791ZM56.1977 51.7814C56.2261 52.6412 56.3016 53.4442 56.4148 54.1905C55.8202 53.7276 55.1501 53.2552 54.4139 52.8018C53.9042 51.5075 53.4323 50.0242 53.017 48.3898C54.2345 49.5613 55.3105 50.695 56.1977 51.7814ZM59.4729 66.2171C59.303 65.5747 59.1803 64.9701 59.1048 64.4032C59.2747 64.0726 59.4163 63.7419 59.5295 63.4207C59.6522 63.7419 59.7844 64.0631 59.9543 64.3938C59.8693 65.0268 59.7277 65.707 59.5295 66.4344C59.5106 66.3588 59.4918 66.2927 59.4729 66.2171ZM61.7948 72.1501C61.0491 70.6385 60.4451 69.212 59.9826 67.8893C60.2563 67.0674 60.4639 66.2833 60.6149 65.5464C61.0114 66.1888 61.4833 66.8501 62.0213 67.5398C62.0496 68.9286 61.9741 70.4779 61.7948 72.1501ZM35.5653 63.6758C38.8499 62.1264 42.0212 60.8699 44.9471 59.9535C46.6932 60.492 48.3544 60.9077 49.8834 61.1911C48.5526 61.9752 47.1368 62.92 45.6833 64.0064C44.8622 64.0442 44.0221 64.0631 43.1444 64.0631C40.7564 64.0631 38.1986 63.9309 35.5653 63.6758ZM54.4894 69.1836C54.0269 69.6749 53.5267 70.1662 53.0076 70.6669C53.4228 69.023 53.8948 67.5303 54.4044 66.2266C55.1501 65.7637 55.8108 65.3007 56.4054 64.8284C56.2921 65.5747 56.2166 66.3777 56.1789 67.2469C55.6786 67.8704 55.1123 68.5223 54.48 69.1836H54.4894ZM57.0472 67.5492C57.5852 66.869 58.0571 66.1982 58.4535 65.5653C58.6046 66.3022 58.8122 67.0769 59.0859 67.8988C58.6329 69.212 58.0194 70.648 57.2737 72.1596C57.0944 70.4874 57.0189 68.938 57.0472 67.5492ZM64.1261 5.47007C64.1638 5.5551 64.2016 5.64012 64.2488 5.7346C64.2959 5.83852 64.3431 5.94244 64.3903 6.04636C65.438 8.5027 66.3158 11.7054 66.967 15.3993C64.8245 19.1311 62.7575 23.543 60.9736 28.3518C60.4545 29.7594 59.9731 31.1577 59.539 32.5276C59.1048 31.1577 58.6234 29.7689 58.1043 28.3518C56.3299 23.543 54.2629 19.1311 52.1109 15.3993C53.6211 6.78326 56.4148 0.840823 59.539 0.840823C59.6805 0.840823 59.8127 0.85027 59.9543 0.878612C61.4172 1.13369 62.8707 2.74921 64.1355 5.47007H64.1261ZM51.101 83.6477C53.3379 80.6717 55.2445 77.7619 56.7546 75.041C57.236 78.102 58.0099 81.4748 59.0859 85.0364C58.5574 86.7842 57.9627 88.5792 57.302 90.3742C55.6975 94.7201 53.8381 98.773 51.8938 102.269C51.2898 98.3384 50.9405 93.9076 50.9405 89.2689C50.9405 87.3511 50.9972 85.471 51.1104 83.6477H51.101ZM68.1374 89.2689C68.1374 93.9076 67.7882 98.3384 67.1841 102.269C65.2492 98.773 63.3804 94.7201 61.7759 90.3742C61.1057 88.5698 60.5206 86.7842 59.992 85.0364C61.0586 81.4842 61.8325 78.1115 62.3139 75.041C63.8335 77.7619 65.7306 80.6717 67.9769 83.6571C68.0808 85.4899 68.1374 87.3605 68.1374 89.2689ZM98.1989 97.6771C98.2366 97.8094 98.2744 97.9416 98.3121 98.0645C98.3593 98.244 98.416 98.4329 98.4631 98.6124C98.4631 98.6313 98.4631 98.6502 98.4726 98.6597C99.0861 101.21 98.9728 103.119 98.0856 104.158C98.0007 104.262 97.8968 104.356 97.793 104.451C97.2928 104.867 96.6132 105.074 95.7638 105.074C92.6585 105.074 87.8732 102.429 82.6443 98.0739C81.8609 93.8698 80.5584 89.1744 78.7462 84.2806C78.2271 82.873 77.6797 81.5126 77.1228 80.1805C78.3498 80.9457 79.624 81.7204 80.9454 82.4667C85.4003 84.9987 89.8647 87.0865 93.9893 88.6076C95.9148 91.8764 97.34 94.909 98.1328 97.4598C98.1517 97.526 98.18 97.6015 98.1989 97.6771ZM102.607 44.6297C111.535 44.6297 117.633 46.472 118.152 49.3345C118.529 51.4413 115.887 54.0866 110.903 56.5713C109.129 57.4594 107.128 58.2907 104.957 59.0654C100.87 57.6389 96.0941 56.4107 90.9029 55.5037C89.4211 55.2487 87.9393 55.0219 86.4763 54.8424C87.7883 54.1716 89.0908 53.4725 90.4121 52.7262C94.8577 50.1943 98.9351 47.4262 102.361 44.6486C102.446 44.6486 102.531 44.6486 102.616 44.6486L102.607 44.6297ZM106.203 59.5094C108.043 58.8292 109.752 58.0923 111.29 57.3271C116.717 54.6157 119.454 51.7248 118.992 49.1834C118.407 45.8957 112.583 43.8928 103.371 43.7889C104.862 42.5229 106.222 41.257 107.401 40.0099C111.554 35.6358 113.131 31.9985 111.819 29.7594C110.997 28.3518 109.176 27.6432 106.401 27.6432C103.447 27.6432 99.5769 28.4651 95.2824 29.9484C99.6241 22.3338 101.002 16.1268 98.3405 13.9255C97.6798 13.387 96.8114 13.1036 95.7638 13.1036C92.6396 13.1036 87.9676 15.5788 82.8614 19.7074C83.1823 17.7801 83.3899 15.9567 83.4938 14.2373C83.8241 8.25707 82.6537 4.47809 80.1903 3.59003C79.8316 3.45776 79.4447 3.39163 79.0388 3.39163C75.8769 3.39163 71.6579 7.59575 67.656 14.2279C67.0425 11.0441 66.2497 8.25707 65.3153 6.02747C65.3059 5.98968 65.287 5.95189 65.2775 5.92355C65.202 5.75349 65.1265 5.59289 65.0605 5.42283C64.9944 5.29057 64.9378 5.1583 64.8811 5.02604C64.8717 4.9977 64.8528 4.9788 64.8434 4.95046C63.3049 1.72888 61.4833 0 59.5484 0C56.0656 0 53.0736 5.64012 51.4313 14.2373C47.42 7.60519 43.201 3.40108 40.0486 3.40108C39.6427 3.40108 39.2557 3.46721 38.8971 3.59948C35.6219 4.77096 34.7725 11.0724 36.2071 19.6979C31.1009 15.5788 26.4289 13.1131 23.3142 13.1131C22.2665 13.1131 21.3887 13.387 20.7375 13.935C18.0664 16.1362 19.4538 22.3432 23.7955 29.9578C19.4916 28.4746 15.6407 27.6527 12.677 27.6527C9.91157 27.6527 8.08051 28.3612 7.25936 29.7689C5.52268 32.7448 8.96772 38.1015 15.6879 43.7984C10.1381 43.8645 5.82471 44.6108 3.14419 45.924C1.3792 46.7837 0.322096 47.8891 0.0861344 49.1928C-0.517927 52.5656 4.57884 56.439 12.8564 59.5283C4.54108 62.561 -0.555681 66.4344 0.0483805 69.8166C0.643003 73.1043 6.44765 75.0977 15.6501 75.2111C8.92997 80.9079 5.47549 86.2646 7.22161 89.2406C8.04275 90.6482 9.86437 91.3568 12.6393 91.3568C15.603 91.3568 19.4727 90.5254 23.7767 89.0422C22.8045 90.7427 21.9739 92.3866 21.2943 93.9548C18.9064 99.4721 18.6988 103.412 20.6997 105.074C21.3604 105.622 22.2287 105.896 23.2764 105.896C26.3911 105.896 31.0631 103.431 36.1693 99.3115C34.7347 107.937 35.5842 114.238 38.8593 115.41C39.2274 115.542 39.6049 115.608 40.0108 115.608C43.1632 115.608 47.3822 111.404 51.3936 104.772C53.0359 113.36 56.0279 119 59.5106 119C62.9934 119 65.9854 113.36 67.6277 104.772C71.6296 111.404 75.858 115.608 79.0105 115.608C79.4163 115.608 79.8033 115.542 80.162 115.41C83.4371 114.238 84.2866 107.937 82.8519 99.3115C87.9487 103.431 92.6207 105.896 95.7449 105.896C96.802 105.896 97.6703 105.622 98.3216 105.074C99.8978 103.771 100.096 101.05 98.9539 97.2614C98.9256 97.1481 98.8879 97.0441 98.8596 96.9308C98.8312 96.8458 98.7935 96.7513 98.7652 96.6568C98.0195 94.3894 96.8397 91.8103 95.2635 89.0422C99.558 90.5254 103.418 91.3568 106.382 91.3568C109.147 91.3568 110.979 90.6482 111.8 89.2406C113.536 86.2646 110.091 80.9079 103.371 75.2111C112.574 75.0977 118.388 73.1043 118.973 69.8166C119.577 66.4344 114.471 62.561 106.184 59.4717L106.203 59.5094Z" fill="#F8AFA6"/>
</svg>
